%TF.GenerationSoftware,KiCad,Pcbnew,10.0.6*%
%TF.CreationDate,2026-09-01T21:08:23+05:30*%
%TF.ProjectId,DesClock,44657343-6c6f-4636-9b2e-6b696361645f,rev?*%
%TF.SameCoordinates,Original*%
%TF.FileFunction,Soldermask,Top*%
%TF.FilePolarity,Negative*%
%FSLAX46Y46*%
G04 Gerber Fmt 4.6, Leading zero omitted, Abs format (unit mm)*
G04 Created by KiCad (PCBNEW 10.0.6) date 2026-09-01 21:08:23*
%MOMM*%
%LPD*%
G01*
G04 APERTURE LIST*
%ADD10C,1.700000*%
%ADD11R,1.700000X1.700000*%
%ADD12C,1.524000*%
%ADD13C,4.000000*%
%ADD14C,2.200000*%
%ADD15C,3.200000*%
%ADD16R,2.000000X2.000000*%
%ADD17C,2.000000*%
G04 APERTURE END LIST*
D10*
%TO.C,J1*%
X53630000Y-54060000D03*
X56170000Y-54060000D03*
X58710000Y-54060000D03*
X61250000Y-54060000D03*
X63790000Y-54060000D03*
X66330000Y-54060000D03*
X68870000Y-54060000D03*
D11*
X71410000Y-54060000D03*
%TD*%
D12*
%TO.C,U1*%
X95890000Y-41278500D03*
X95890000Y-43818500D03*
X95890000Y-46358500D03*
X95890000Y-48898500D03*
X95890000Y-51438500D03*
X95890000Y-53978500D03*
X95890000Y-56518500D03*
X80650000Y-56518500D03*
X80650000Y-53978500D03*
X80650000Y-51438500D03*
X80650000Y-48898500D03*
X80650000Y-46358500D03*
X80650000Y-43818500D03*
X80650000Y-41278500D03*
%TD*%
D10*
%TO.C,SW4*%
X109980000Y-68820000D03*
D13*
X115060000Y-68820000D03*
D10*
X120140000Y-68820000D03*
D14*
X117600000Y-63740000D03*
X111250000Y-66280000D03*
%TD*%
D10*
%TO.C,SW3*%
X90850000Y-68820000D03*
D13*
X95930000Y-68820000D03*
D10*
X101010000Y-68820000D03*
D14*
X98470000Y-63740000D03*
X92120000Y-66280000D03*
%TD*%
D10*
%TO.C,SW2*%
X71720000Y-68820000D03*
D13*
X76800000Y-68820000D03*
D10*
X81880000Y-68820000D03*
D14*
X79340000Y-63740000D03*
X72990000Y-66280000D03*
%TD*%
D10*
%TO.C,SW1*%
X52580000Y-68820000D03*
D13*
X57660000Y-68820000D03*
D10*
X62740000Y-68820000D03*
D14*
X60200000Y-63740000D03*
X53850000Y-66280000D03*
%TD*%
D15*
%TO.C,H4*%
X129810000Y-36620000D03*
%TD*%
%TO.C,H3*%
X130130000Y-79800000D03*
%TD*%
%TO.C,H2*%
X43940000Y-36380000D03*
%TD*%
%TO.C,H1*%
X44110000Y-80130000D03*
%TD*%
D16*
%TO.C,BZ1*%
X118070000Y-48290000D03*
D17*
X118070000Y-55890000D03*
%TD*%
M02*
