%TF.GenerationSoftware,KiCad,Pcbnew,10.0.6*%
%TF.CreationDate,2026-09-01T21:08:22+05:30*%
%TF.ProjectId,DesClock,44657343-6c6f-4636-9b2e-6b696361645f,rev?*%
%TF.SameCoordinates,Original*%
%TF.FileFunction,Copper,L1,Top*%
%TF.FilePolarity,Positive*%
%FSLAX46Y46*%
G04 Gerber Fmt 4.6, Leading zero omitted, Abs format (unit mm)*
G04 Created by KiCad (PCBNEW 10.0.6) date 2026-09-01 21:08:22*
%MOMM*%
%LPD*%
G01*
G04 APERTURE LIST*
%TA.AperFunction,ComponentPad*%
%ADD10C,1.700000*%
%TD*%
%TA.AperFunction,ComponentPad*%
%ADD11R,1.700000X1.700000*%
%TD*%
%TA.AperFunction,ComponentPad*%
%ADD12C,1.524000*%
%TD*%
%TA.AperFunction,ComponentPad*%
%ADD13C,2.200000*%
%TD*%
%TA.AperFunction,ComponentPad*%
%ADD14R,2.000000X2.000000*%
%TD*%
%TA.AperFunction,ComponentPad*%
%ADD15C,2.000000*%
%TD*%
%TA.AperFunction,ViaPad*%
%ADD16C,0.600000*%
%TD*%
%TA.AperFunction,Conductor*%
%ADD17C,0.200000*%
%TD*%
G04 APERTURE END LIST*
D10*
%TO.P,J1,8,Pin_8_8*%
%TO.N,/BL*%
X53630000Y-54060000D03*
%TO.P,J1,7,Pin_7_7*%
%TO.N,/CS*%
X56170000Y-54060000D03*
%TO.P,J1,6,Pin_6_6*%
%TO.N,/DC*%
X58710000Y-54060000D03*
%TO.P,J1,5,Pin_5_5*%
%TO.N,/RST*%
X61250000Y-54060000D03*
%TO.P,J1,4,Pin_4_4*%
%TO.N,/SDA*%
X63790000Y-54060000D03*
%TO.P,J1,3,Pin_3_3*%
%TO.N,/SCL*%
X66330000Y-54060000D03*
%TO.P,J1,2,Pin_2_2*%
%TO.N,+3.3V*%
X68870000Y-54060000D03*
D11*
%TO.P,J1,1,Pin_1_1*%
%TO.N,GND*%
X71410000Y-54060000D03*
%TD*%
D12*
%TO.P,U1,1,D0_1*%
%TO.N,Net-(U1-D0)*%
X95890000Y-41278500D03*
%TO.P,U1,2,D1_2*%
%TO.N,Net-(U1-D1)*%
X95890000Y-43818500D03*
%TO.P,U1,3,D2_3*%
%TO.N,Net-(U1-D2)*%
X95890000Y-46358500D03*
%TO.P,U1,4,D3_4*%
%TO.N,Net-(U1-D3)*%
X95890000Y-48898500D03*
%TO.P,U1,5,D4_5*%
%TO.N,/DC*%
X95890000Y-51438500D03*
%TO.P,U1,6,D5_6*%
%TO.N,/CS*%
X95890000Y-53978500D03*
%TO.P,U1,7,D6_7*%
%TO.N,/BL*%
X95890000Y-56518500D03*
%TO.P,U1,8,D7_8*%
%TO.N,Net-(BZ1-+)*%
X80650000Y-56518500D03*
%TO.P,U1,9,D8_9*%
%TO.N,/RST*%
X80650000Y-53978500D03*
%TO.P,U1,10,D9/BOOT_10*%
%TO.N,/SCL*%
X80650000Y-51438500D03*
%TO.P,U1,11,D10_11*%
%TO.N,/SDA*%
X80650000Y-48898500D03*
%TO.P,U1,12,3V3_OUT_12*%
%TO.N,+3.3V*%
X80650000Y-46358500D03*
%TO.P,U1,13,GND_13*%
%TO.N,GND*%
X80650000Y-43818500D03*
%TO.P,U1,14,VBUS_14*%
%TO.N,unconnected-(U1-VBUS-Pad14)_1*%
X80650000Y-41278500D03*
%TD*%
D13*
%TO.P,SW4,1,1_1*%
%TO.N,GND*%
X117600000Y-63740000D03*
%TO.P,SW4,2,2_2*%
%TO.N,Net-(U1-D0)*%
X111250000Y-66280000D03*
%TD*%
%TO.P,SW3,1,1_1*%
%TO.N,GND*%
X98470000Y-63740000D03*
%TO.P,SW3,2,2_2*%
%TO.N,Net-(U1-D1)*%
X92120000Y-66280000D03*
%TD*%
%TO.P,SW2,1,1_1*%
%TO.N,GND*%
X79340000Y-63740000D03*
%TO.P,SW2,2,2_2*%
%TO.N,Net-(U1-D2)*%
X72990000Y-66280000D03*
%TD*%
%TO.P,SW1,1,1_1*%
%TO.N,GND*%
X60200000Y-63740000D03*
%TO.P,SW1,2,2_2*%
%TO.N,Net-(U1-D3)*%
X53850000Y-66280000D03*
%TD*%
D14*
%TO.P,BZ1,1,+_1*%
%TO.N,Net-(BZ1-+)*%
X118070000Y-48290000D03*
D15*
%TO.P,BZ1,2,-_2*%
%TO.N,GND*%
X118070000Y-55890000D03*
%TD*%
D16*
%TO.N,+3.3V*%
X75270000Y-46280000D03*
%TO.N,GND*%
X79815000Y-43818500D03*
%TD*%
%TO.N,+3.3V*%
D17*
X75348500Y-46358500D02*
X75270000Y-46280000D01*
X80650000Y-46358500D02*
X75348500Y-46358500D01*
%TO.N,Net-(U1-D0)*%
X101630000Y-56660000D02*
X101600000Y-56660000D01*
X111250000Y-66280000D02*
X101630000Y-56660000D01*
X101600000Y-56660000D02*
X101600000Y-46988500D01*
X101600000Y-46988500D02*
X95890000Y-41278500D01*
%TO.N,Net-(U1-D1)*%
X92120000Y-66280000D02*
X100350000Y-58050000D01*
X100350000Y-58050000D02*
X100350000Y-47200870D01*
X100350000Y-47200870D02*
X96967630Y-43818500D01*
X96967630Y-43818500D02*
X95890000Y-43818500D01*
%TO.N,Net-(U1-D2)*%
X72990000Y-66280000D02*
X79010000Y-60260000D01*
X79010000Y-60220000D02*
X96810000Y-60220000D01*
X79010000Y-60260000D02*
X79010000Y-60220000D01*
X96810000Y-60220000D02*
X99950000Y-57080000D01*
X99950000Y-57080000D02*
X99950000Y-47990000D01*
X99950000Y-47990000D02*
X98318500Y-46358500D01*
X98318500Y-46358500D02*
X95890000Y-46358500D01*
%TO.N,Net-(U1-D3)*%
X99070000Y-57040000D02*
X99070000Y-48820000D01*
X53900000Y-66280000D02*
X60360000Y-59820000D01*
X98991500Y-48898500D02*
X95890000Y-48898500D01*
X53850000Y-66280000D02*
X53900000Y-66280000D01*
X96290000Y-59820000D02*
X99070000Y-57040000D01*
X60360000Y-59820000D02*
X96290000Y-59820000D01*
X99070000Y-48820000D02*
X98991500Y-48898500D01*
%TO.N,/DC*%
X58710000Y-54060000D02*
X62230500Y-57580500D01*
X62230500Y-57580500D02*
X89748000Y-57580500D01*
X89748000Y-57580500D02*
X95890000Y-51438500D01*
%TO.N,/CS*%
X56170000Y-54060000D02*
X60170000Y-58060000D01*
X60170000Y-58060000D02*
X91808500Y-58060000D01*
X91808500Y-58060000D02*
X95890000Y-53978500D01*
%TO.N,/BL*%
X58280000Y-58710000D02*
X95180000Y-58710000D01*
X53630000Y-54060000D02*
X58280000Y-58710000D01*
X95890000Y-58000000D02*
X95890000Y-56518500D01*
X95180000Y-58710000D02*
X95890000Y-58000000D01*
%TO.N,/RST*%
X61250000Y-54060000D02*
X61250000Y-54635685D01*
X61250000Y-54635685D02*
X62304315Y-55690000D01*
X62304315Y-55690000D02*
X78938500Y-55690000D01*
X78938500Y-55690000D02*
X80650000Y-53978500D01*
%TO.N,/SDA*%
X63790000Y-54060000D02*
X68951500Y-48898500D01*
X68951500Y-48898500D02*
X80650000Y-48898500D01*
%TO.N,/SCL*%
X66330000Y-54060000D02*
X68951500Y-51438500D01*
X68951500Y-51438500D02*
X80650000Y-51438500D01*
%TO.N,/SDA*%
X62320000Y-55140000D02*
X62310000Y-55130000D01*
X62400000Y-55140000D02*
X62320000Y-55140000D01*
%TD*%
M02*
