M48
; DRILL file KiCad 10.0.6 date 2026-09-01T21:08:19
; FORMAT={-:-/ absolute / metric / decimal}
; #@! TF.CreationDate,2026-09-01T21:08:19+05:30
; #@! TF.GenerationSoftware,Kicad,Pcbnew,10.0.6
; #@! TF.FileFunction,Plated,1,2,PTH
FMAT,2
METRIC
; #@! TA.AperFunction,Plated,PTH,ViaDrill
T1C0.300
; #@! TA.AperFunction,Plated,PTH,ComponentDrill
T2C0.889
; #@! TA.AperFunction,Plated,PTH,ComponentDrill
T3C1.000
; #@! TA.AperFunction,Plated,PTH,ComponentDrill
T4C1.500
%
G90
G05
T1
X75.27Y-46.28
X79.815Y-43.819
T2
X80.65Y-41.279
X80.65Y-43.819
X80.65Y-46.358
X80.65Y-48.898
X80.65Y-51.438
X80.65Y-53.978
X80.65Y-56.518
X95.89Y-41.279
X95.89Y-43.819
X95.89Y-46.358
X95.89Y-48.898
X95.89Y-51.438
X95.89Y-53.978
X95.89Y-56.518
T3
X53.63Y-54.06
X56.17Y-54.06
X58.71Y-54.06
X61.25Y-54.06
X63.79Y-54.06
X66.33Y-54.06
X68.87Y-54.06
X71.41Y-54.06
X118.07Y-48.29
X118.07Y-55.89
T4
X53.85Y-66.28
X60.2Y-63.74
X72.99Y-66.28
X79.34Y-63.74
X92.12Y-66.28
X98.47Y-63.74
X111.25Y-66.28
X117.6Y-63.74
M30
