%TF.GenerationSoftware,KiCad,Pcbnew,10.0.6*%
%TF.CreationDate,2026-09-01T21:08:23+05:30*%
%TF.ProjectId,DesClock,44657343-6c6f-4636-9b2e-6b696361645f,rev?*%
%TF.SameCoordinates,Original*%
%TF.FileFunction,Legend,Top*%
%TF.FilePolarity,Positive*%
%FSLAX46Y46*%
G04 Gerber Fmt 4.6, Leading zero omitted, Abs format (unit mm)*
G04 Created by KiCad (PCBNEW 10.0.6) date 2026-09-01 21:08:23*
%MOMM*%
%LPD*%
G01*
G04 APERTURE LIST*
%ADD10C,0.150000*%
%ADD11C,0.120000*%
G04 APERTURE END LIST*
D10*
X113726667Y-61353200D02*
X113869524Y-61400819D01*
X113869524Y-61400819D02*
X114107619Y-61400819D01*
X114107619Y-61400819D02*
X114202857Y-61353200D01*
X114202857Y-61353200D02*
X114250476Y-61305580D01*
X114250476Y-61305580D02*
X114298095Y-61210342D01*
X114298095Y-61210342D02*
X114298095Y-61115104D01*
X114298095Y-61115104D02*
X114250476Y-61019866D01*
X114250476Y-61019866D02*
X114202857Y-60972247D01*
X114202857Y-60972247D02*
X114107619Y-60924628D01*
X114107619Y-60924628D02*
X113917143Y-60877009D01*
X113917143Y-60877009D02*
X113821905Y-60829390D01*
X113821905Y-60829390D02*
X113774286Y-60781771D01*
X113774286Y-60781771D02*
X113726667Y-60686533D01*
X113726667Y-60686533D02*
X113726667Y-60591295D01*
X113726667Y-60591295D02*
X113774286Y-60496057D01*
X113774286Y-60496057D02*
X113821905Y-60448438D01*
X113821905Y-60448438D02*
X113917143Y-60400819D01*
X113917143Y-60400819D02*
X114155238Y-60400819D01*
X114155238Y-60400819D02*
X114298095Y-60448438D01*
X114631429Y-60400819D02*
X114869524Y-61400819D01*
X114869524Y-61400819D02*
X115060000Y-60686533D01*
X115060000Y-60686533D02*
X115250476Y-61400819D01*
X115250476Y-61400819D02*
X115488572Y-60400819D01*
X116298095Y-60734152D02*
X116298095Y-61400819D01*
X116060000Y-60353200D02*
X115821905Y-61067485D01*
X115821905Y-61067485D02*
X116440952Y-61067485D01*
X94596667Y-61353200D02*
X94739524Y-61400819D01*
X94739524Y-61400819D02*
X94977619Y-61400819D01*
X94977619Y-61400819D02*
X95072857Y-61353200D01*
X95072857Y-61353200D02*
X95120476Y-61305580D01*
X95120476Y-61305580D02*
X95168095Y-61210342D01*
X95168095Y-61210342D02*
X95168095Y-61115104D01*
X95168095Y-61115104D02*
X95120476Y-61019866D01*
X95120476Y-61019866D02*
X95072857Y-60972247D01*
X95072857Y-60972247D02*
X94977619Y-60924628D01*
X94977619Y-60924628D02*
X94787143Y-60877009D01*
X94787143Y-60877009D02*
X94691905Y-60829390D01*
X94691905Y-60829390D02*
X94644286Y-60781771D01*
X94644286Y-60781771D02*
X94596667Y-60686533D01*
X94596667Y-60686533D02*
X94596667Y-60591295D01*
X94596667Y-60591295D02*
X94644286Y-60496057D01*
X94644286Y-60496057D02*
X94691905Y-60448438D01*
X94691905Y-60448438D02*
X94787143Y-60400819D01*
X94787143Y-60400819D02*
X95025238Y-60400819D01*
X95025238Y-60400819D02*
X95168095Y-60448438D01*
X95501429Y-60400819D02*
X95739524Y-61400819D01*
X95739524Y-61400819D02*
X95930000Y-60686533D01*
X95930000Y-60686533D02*
X96120476Y-61400819D01*
X96120476Y-61400819D02*
X96358572Y-60400819D01*
X96644286Y-60400819D02*
X97263333Y-60400819D01*
X97263333Y-60400819D02*
X96930000Y-60781771D01*
X96930000Y-60781771D02*
X97072857Y-60781771D01*
X97072857Y-60781771D02*
X97168095Y-60829390D01*
X97168095Y-60829390D02*
X97215714Y-60877009D01*
X97215714Y-60877009D02*
X97263333Y-60972247D01*
X97263333Y-60972247D02*
X97263333Y-61210342D01*
X97263333Y-61210342D02*
X97215714Y-61305580D01*
X97215714Y-61305580D02*
X97168095Y-61353200D01*
X97168095Y-61353200D02*
X97072857Y-61400819D01*
X97072857Y-61400819D02*
X96787143Y-61400819D01*
X96787143Y-61400819D02*
X96691905Y-61353200D01*
X96691905Y-61353200D02*
X96644286Y-61305580D01*
X75466667Y-61353200D02*
X75609524Y-61400819D01*
X75609524Y-61400819D02*
X75847619Y-61400819D01*
X75847619Y-61400819D02*
X75942857Y-61353200D01*
X75942857Y-61353200D02*
X75990476Y-61305580D01*
X75990476Y-61305580D02*
X76038095Y-61210342D01*
X76038095Y-61210342D02*
X76038095Y-61115104D01*
X76038095Y-61115104D02*
X75990476Y-61019866D01*
X75990476Y-61019866D02*
X75942857Y-60972247D01*
X75942857Y-60972247D02*
X75847619Y-60924628D01*
X75847619Y-60924628D02*
X75657143Y-60877009D01*
X75657143Y-60877009D02*
X75561905Y-60829390D01*
X75561905Y-60829390D02*
X75514286Y-60781771D01*
X75514286Y-60781771D02*
X75466667Y-60686533D01*
X75466667Y-60686533D02*
X75466667Y-60591295D01*
X75466667Y-60591295D02*
X75514286Y-60496057D01*
X75514286Y-60496057D02*
X75561905Y-60448438D01*
X75561905Y-60448438D02*
X75657143Y-60400819D01*
X75657143Y-60400819D02*
X75895238Y-60400819D01*
X75895238Y-60400819D02*
X76038095Y-60448438D01*
X76371429Y-60400819D02*
X76609524Y-61400819D01*
X76609524Y-61400819D02*
X76800000Y-60686533D01*
X76800000Y-60686533D02*
X76990476Y-61400819D01*
X76990476Y-61400819D02*
X77228572Y-60400819D01*
X77561905Y-60496057D02*
X77609524Y-60448438D01*
X77609524Y-60448438D02*
X77704762Y-60400819D01*
X77704762Y-60400819D02*
X77942857Y-60400819D01*
X77942857Y-60400819D02*
X78038095Y-60448438D01*
X78038095Y-60448438D02*
X78085714Y-60496057D01*
X78085714Y-60496057D02*
X78133333Y-60591295D01*
X78133333Y-60591295D02*
X78133333Y-60686533D01*
X78133333Y-60686533D02*
X78085714Y-60829390D01*
X78085714Y-60829390D02*
X77514286Y-61400819D01*
X77514286Y-61400819D02*
X78133333Y-61400819D01*
X56326667Y-61353200D02*
X56469524Y-61400819D01*
X56469524Y-61400819D02*
X56707619Y-61400819D01*
X56707619Y-61400819D02*
X56802857Y-61353200D01*
X56802857Y-61353200D02*
X56850476Y-61305580D01*
X56850476Y-61305580D02*
X56898095Y-61210342D01*
X56898095Y-61210342D02*
X56898095Y-61115104D01*
X56898095Y-61115104D02*
X56850476Y-61019866D01*
X56850476Y-61019866D02*
X56802857Y-60972247D01*
X56802857Y-60972247D02*
X56707619Y-60924628D01*
X56707619Y-60924628D02*
X56517143Y-60877009D01*
X56517143Y-60877009D02*
X56421905Y-60829390D01*
X56421905Y-60829390D02*
X56374286Y-60781771D01*
X56374286Y-60781771D02*
X56326667Y-60686533D01*
X56326667Y-60686533D02*
X56326667Y-60591295D01*
X56326667Y-60591295D02*
X56374286Y-60496057D01*
X56374286Y-60496057D02*
X56421905Y-60448438D01*
X56421905Y-60448438D02*
X56517143Y-60400819D01*
X56517143Y-60400819D02*
X56755238Y-60400819D01*
X56755238Y-60400819D02*
X56898095Y-60448438D01*
X57231429Y-60400819D02*
X57469524Y-61400819D01*
X57469524Y-61400819D02*
X57660000Y-60686533D01*
X57660000Y-60686533D02*
X57850476Y-61400819D01*
X57850476Y-61400819D02*
X58088572Y-60400819D01*
X58993333Y-61400819D02*
X58421905Y-61400819D01*
X58707619Y-61400819D02*
X58707619Y-60400819D01*
X58707619Y-60400819D02*
X58612381Y-60543676D01*
X58612381Y-60543676D02*
X58517143Y-60638914D01*
X58517143Y-60638914D02*
X58421905Y-60686533D01*
%TO.C,SW4*%
D11*
X108075000Y-61835000D02*
X122045000Y-61835000D01*
X108075000Y-75805000D02*
X108075000Y-61835000D01*
X122045000Y-61835000D02*
X122045000Y-75805000D01*
X122045000Y-75805000D02*
X108075000Y-75805000D01*
%TO.C,SW3*%
X88945000Y-61835000D02*
X102915000Y-61835000D01*
X88945000Y-75805000D02*
X88945000Y-61835000D01*
X102915000Y-61835000D02*
X102915000Y-75805000D01*
X102915000Y-75805000D02*
X88945000Y-75805000D01*
%TO.C,SW2*%
X69815000Y-61835000D02*
X83785000Y-61835000D01*
X69815000Y-75805000D02*
X69815000Y-61835000D01*
X83785000Y-61835000D02*
X83785000Y-75805000D01*
X83785000Y-75805000D02*
X69815000Y-75805000D01*
%TO.C,SW1*%
X50675000Y-61835000D02*
X64645000Y-61835000D01*
X50675000Y-75805000D02*
X50675000Y-61835000D01*
X64645000Y-61835000D02*
X64645000Y-75805000D01*
X64645000Y-75805000D02*
X50675000Y-75805000D01*
%TD*%
M02*
