%TF.GenerationSoftware,KiCad,Pcbnew,10.0.6*%
%TF.CreationDate,2026-09-01T21:08:24+05:30*%
%TF.ProjectId,DesClock,44657343-6c6f-4636-9b2e-6b696361645f,rev?*%
%TF.SameCoordinates,Original*%
%TF.FileFunction,Profile,NP*%
%FSLAX46Y46*%
G04 Gerber Fmt 4.6, Leading zero omitted, Abs format (unit mm)*
G04 Created by KiCad (PCBNEW 10.0.6) date 2026-09-01 21:08:24*
%MOMM*%
%LPD*%
G01*
G04 APERTURE LIST*
%ADD10C,0.150000*%
%TA.AperFunction,Profile*%
%ADD11C,0.050000*%
%TD*%
G04 APERTURE END LIST*
D10*
X98946779Y-32999819D02*
X98946779Y-31999819D01*
X99280112Y-32333152D02*
X99661064Y-32333152D01*
X99422969Y-32999819D02*
X99422969Y-32142676D01*
X99422969Y-32142676D02*
X99470588Y-32047438D01*
X99470588Y-32047438D02*
X99565826Y-31999819D01*
X99565826Y-31999819D02*
X99661064Y-31999819D01*
X100661065Y-32333152D02*
X100899160Y-32999819D01*
X101137255Y-32333152D02*
X100899160Y-32999819D01*
X100899160Y-32999819D02*
X100803922Y-33237914D01*
X100803922Y-33237914D02*
X100756303Y-33285533D01*
X100756303Y-33285533D02*
X100661065Y-33333152D01*
X101661065Y-32999819D02*
X101565827Y-32952200D01*
X101565827Y-32952200D02*
X101518208Y-32904580D01*
X101518208Y-32904580D02*
X101470589Y-32809342D01*
X101470589Y-32809342D02*
X101470589Y-32523628D01*
X101470589Y-32523628D02*
X101518208Y-32428390D01*
X101518208Y-32428390D02*
X101565827Y-32380771D01*
X101565827Y-32380771D02*
X101661065Y-32333152D01*
X101661065Y-32333152D02*
X101803922Y-32333152D01*
X101803922Y-32333152D02*
X101899160Y-32380771D01*
X101899160Y-32380771D02*
X101946779Y-32428390D01*
X101946779Y-32428390D02*
X101994398Y-32523628D01*
X101994398Y-32523628D02*
X101994398Y-32809342D01*
X101994398Y-32809342D02*
X101946779Y-32904580D01*
X101946779Y-32904580D02*
X101899160Y-32952200D01*
X101899160Y-32952200D02*
X101803922Y-32999819D01*
X101803922Y-32999819D02*
X101661065Y-32999819D01*
X102851541Y-32333152D02*
X102851541Y-32999819D01*
X102422970Y-32333152D02*
X102422970Y-32856961D01*
X102422970Y-32856961D02*
X102470589Y-32952200D01*
X102470589Y-32952200D02*
X102565827Y-32999819D01*
X102565827Y-32999819D02*
X102708684Y-32999819D01*
X102708684Y-32999819D02*
X102803922Y-32952200D01*
X102803922Y-32952200D02*
X102851541Y-32904580D01*
X104518208Y-32952200D02*
X104422970Y-32999819D01*
X104422970Y-32999819D02*
X104232494Y-32999819D01*
X104232494Y-32999819D02*
X104137256Y-32952200D01*
X104137256Y-32952200D02*
X104089637Y-32904580D01*
X104089637Y-32904580D02*
X104042018Y-32809342D01*
X104042018Y-32809342D02*
X104042018Y-32523628D01*
X104042018Y-32523628D02*
X104089637Y-32428390D01*
X104089637Y-32428390D02*
X104137256Y-32380771D01*
X104137256Y-32380771D02*
X104232494Y-32333152D01*
X104232494Y-32333152D02*
X104422970Y-32333152D01*
X104422970Y-32333152D02*
X104518208Y-32380771D01*
X105375351Y-32999819D02*
X105375351Y-32476009D01*
X105375351Y-32476009D02*
X105327732Y-32380771D01*
X105327732Y-32380771D02*
X105232494Y-32333152D01*
X105232494Y-32333152D02*
X105042018Y-32333152D01*
X105042018Y-32333152D02*
X104946780Y-32380771D01*
X105375351Y-32952200D02*
X105280113Y-32999819D01*
X105280113Y-32999819D02*
X105042018Y-32999819D01*
X105042018Y-32999819D02*
X104946780Y-32952200D01*
X104946780Y-32952200D02*
X104899161Y-32856961D01*
X104899161Y-32856961D02*
X104899161Y-32761723D01*
X104899161Y-32761723D02*
X104946780Y-32666485D01*
X104946780Y-32666485D02*
X105042018Y-32618866D01*
X105042018Y-32618866D02*
X105280113Y-32618866D01*
X105280113Y-32618866D02*
X105375351Y-32571247D01*
X105851542Y-32333152D02*
X105851542Y-32999819D01*
X105851542Y-32428390D02*
X105899161Y-32380771D01*
X105899161Y-32380771D02*
X105994399Y-32333152D01*
X105994399Y-32333152D02*
X106137256Y-32333152D01*
X106137256Y-32333152D02*
X106232494Y-32380771D01*
X106232494Y-32380771D02*
X106280113Y-32476009D01*
X106280113Y-32476009D02*
X106280113Y-32999819D01*
X107470590Y-32952200D02*
X107565828Y-32999819D01*
X107565828Y-32999819D02*
X107756304Y-32999819D01*
X107756304Y-32999819D02*
X107851542Y-32952200D01*
X107851542Y-32952200D02*
X107899161Y-32856961D01*
X107899161Y-32856961D02*
X107899161Y-32809342D01*
X107899161Y-32809342D02*
X107851542Y-32714104D01*
X107851542Y-32714104D02*
X107756304Y-32666485D01*
X107756304Y-32666485D02*
X107613447Y-32666485D01*
X107613447Y-32666485D02*
X107518209Y-32618866D01*
X107518209Y-32618866D02*
X107470590Y-32523628D01*
X107470590Y-32523628D02*
X107470590Y-32476009D01*
X107470590Y-32476009D02*
X107518209Y-32380771D01*
X107518209Y-32380771D02*
X107613447Y-32333152D01*
X107613447Y-32333152D02*
X107756304Y-32333152D01*
X107756304Y-32333152D02*
X107851542Y-32380771D01*
X108708685Y-32952200D02*
X108613447Y-32999819D01*
X108613447Y-32999819D02*
X108422971Y-32999819D01*
X108422971Y-32999819D02*
X108327733Y-32952200D01*
X108327733Y-32952200D02*
X108280114Y-32856961D01*
X108280114Y-32856961D02*
X108280114Y-32476009D01*
X108280114Y-32476009D02*
X108327733Y-32380771D01*
X108327733Y-32380771D02*
X108422971Y-32333152D01*
X108422971Y-32333152D02*
X108613447Y-32333152D01*
X108613447Y-32333152D02*
X108708685Y-32380771D01*
X108708685Y-32380771D02*
X108756304Y-32476009D01*
X108756304Y-32476009D02*
X108756304Y-32571247D01*
X108756304Y-32571247D02*
X108280114Y-32666485D01*
X109565828Y-32952200D02*
X109470590Y-32999819D01*
X109470590Y-32999819D02*
X109280114Y-32999819D01*
X109280114Y-32999819D02*
X109184876Y-32952200D01*
X109184876Y-32952200D02*
X109137257Y-32856961D01*
X109137257Y-32856961D02*
X109137257Y-32476009D01*
X109137257Y-32476009D02*
X109184876Y-32380771D01*
X109184876Y-32380771D02*
X109280114Y-32333152D01*
X109280114Y-32333152D02*
X109470590Y-32333152D01*
X109470590Y-32333152D02*
X109565828Y-32380771D01*
X109565828Y-32380771D02*
X109613447Y-32476009D01*
X109613447Y-32476009D02*
X109613447Y-32571247D01*
X109613447Y-32571247D02*
X109137257Y-32666485D01*
X110661067Y-32333152D02*
X111042019Y-32333152D01*
X110803924Y-31999819D02*
X110803924Y-32856961D01*
X110803924Y-32856961D02*
X110851543Y-32952200D01*
X110851543Y-32952200D02*
X110946781Y-32999819D01*
X110946781Y-32999819D02*
X111042019Y-32999819D01*
X111375353Y-32999819D02*
X111375353Y-31999819D01*
X111803924Y-32999819D02*
X111803924Y-32476009D01*
X111803924Y-32476009D02*
X111756305Y-32380771D01*
X111756305Y-32380771D02*
X111661067Y-32333152D01*
X111661067Y-32333152D02*
X111518210Y-32333152D01*
X111518210Y-32333152D02*
X111422972Y-32380771D01*
X111422972Y-32380771D02*
X111375353Y-32428390D01*
X112280115Y-32999819D02*
X112280115Y-32333152D01*
X112280115Y-31999819D02*
X112232496Y-32047438D01*
X112232496Y-32047438D02*
X112280115Y-32095057D01*
X112280115Y-32095057D02*
X112327734Y-32047438D01*
X112327734Y-32047438D02*
X112280115Y-31999819D01*
X112280115Y-31999819D02*
X112280115Y-32095057D01*
X112708686Y-32952200D02*
X112803924Y-32999819D01*
X112803924Y-32999819D02*
X112994400Y-32999819D01*
X112994400Y-32999819D02*
X113089638Y-32952200D01*
X113089638Y-32952200D02*
X113137257Y-32856961D01*
X113137257Y-32856961D02*
X113137257Y-32809342D01*
X113137257Y-32809342D02*
X113089638Y-32714104D01*
X113089638Y-32714104D02*
X112994400Y-32666485D01*
X112994400Y-32666485D02*
X112851543Y-32666485D01*
X112851543Y-32666485D02*
X112756305Y-32618866D01*
X112756305Y-32618866D02*
X112708686Y-32523628D01*
X112708686Y-32523628D02*
X112708686Y-32476009D01*
X112708686Y-32476009D02*
X112756305Y-32380771D01*
X112756305Y-32380771D02*
X112851543Y-32333152D01*
X112851543Y-32333152D02*
X112994400Y-32333152D01*
X112994400Y-32333152D02*
X113089638Y-32380771D01*
X114184877Y-32333152D02*
X114565829Y-32333152D01*
X114327734Y-31999819D02*
X114327734Y-32856961D01*
X114327734Y-32856961D02*
X114375353Y-32952200D01*
X114375353Y-32952200D02*
X114470591Y-32999819D01*
X114470591Y-32999819D02*
X114565829Y-32999819D01*
X115280115Y-32952200D02*
X115184877Y-32999819D01*
X115184877Y-32999819D02*
X114994401Y-32999819D01*
X114994401Y-32999819D02*
X114899163Y-32952200D01*
X114899163Y-32952200D02*
X114851544Y-32856961D01*
X114851544Y-32856961D02*
X114851544Y-32476009D01*
X114851544Y-32476009D02*
X114899163Y-32380771D01*
X114899163Y-32380771D02*
X114994401Y-32333152D01*
X114994401Y-32333152D02*
X115184877Y-32333152D01*
X115184877Y-32333152D02*
X115280115Y-32380771D01*
X115280115Y-32380771D02*
X115327734Y-32476009D01*
X115327734Y-32476009D02*
X115327734Y-32571247D01*
X115327734Y-32571247D02*
X114851544Y-32666485D01*
X115661068Y-32999819D02*
X116184877Y-32333152D01*
X115661068Y-32333152D02*
X116184877Y-32999819D01*
X116422973Y-32333152D02*
X116803925Y-32333152D01*
X116565830Y-31999819D02*
X116565830Y-32856961D01*
X116565830Y-32856961D02*
X116613449Y-32952200D01*
X116613449Y-32952200D02*
X116708687Y-32999819D01*
X116708687Y-32999819D02*
X116803925Y-32999819D01*
X117184878Y-32952200D02*
X117184878Y-32999819D01*
X117184878Y-32999819D02*
X117137259Y-33095057D01*
X117137259Y-33095057D02*
X117089640Y-33142676D01*
X118280116Y-32333152D02*
X118518211Y-32999819D01*
X118756306Y-32333152D02*
X118518211Y-32999819D01*
X118518211Y-32999819D02*
X118422973Y-33237914D01*
X118422973Y-33237914D02*
X118375354Y-33285533D01*
X118375354Y-33285533D02*
X118280116Y-33333152D01*
X119280116Y-32999819D02*
X119184878Y-32952200D01*
X119184878Y-32952200D02*
X119137259Y-32904580D01*
X119137259Y-32904580D02*
X119089640Y-32809342D01*
X119089640Y-32809342D02*
X119089640Y-32523628D01*
X119089640Y-32523628D02*
X119137259Y-32428390D01*
X119137259Y-32428390D02*
X119184878Y-32380771D01*
X119184878Y-32380771D02*
X119280116Y-32333152D01*
X119280116Y-32333152D02*
X119422973Y-32333152D01*
X119422973Y-32333152D02*
X119518211Y-32380771D01*
X119518211Y-32380771D02*
X119565830Y-32428390D01*
X119565830Y-32428390D02*
X119613449Y-32523628D01*
X119613449Y-32523628D02*
X119613449Y-32809342D01*
X119613449Y-32809342D02*
X119565830Y-32904580D01*
X119565830Y-32904580D02*
X119518211Y-32952200D01*
X119518211Y-32952200D02*
X119422973Y-32999819D01*
X119422973Y-32999819D02*
X119280116Y-32999819D01*
X120470592Y-32333152D02*
X120470592Y-32999819D01*
X120042021Y-32333152D02*
X120042021Y-32856961D01*
X120042021Y-32856961D02*
X120089640Y-32952200D01*
X120089640Y-32952200D02*
X120184878Y-32999819D01*
X120184878Y-32999819D02*
X120327735Y-32999819D01*
X120327735Y-32999819D02*
X120422973Y-32952200D01*
X120422973Y-32952200D02*
X120470592Y-32904580D01*
X120946783Y-32999819D02*
X120946783Y-32333152D01*
X120946783Y-32523628D02*
X120994402Y-32428390D01*
X120994402Y-32428390D02*
X121042021Y-32380771D01*
X121042021Y-32380771D02*
X121137259Y-32333152D01*
X121137259Y-32333152D02*
X121232497Y-32333152D01*
X122232498Y-32333152D02*
X122422974Y-32999819D01*
X122422974Y-32999819D02*
X122613450Y-32523628D01*
X122613450Y-32523628D02*
X122803926Y-32999819D01*
X122803926Y-32999819D02*
X122994402Y-32333152D01*
X123803926Y-32999819D02*
X123803926Y-32476009D01*
X123803926Y-32476009D02*
X123756307Y-32380771D01*
X123756307Y-32380771D02*
X123661069Y-32333152D01*
X123661069Y-32333152D02*
X123470593Y-32333152D01*
X123470593Y-32333152D02*
X123375355Y-32380771D01*
X123803926Y-32952200D02*
X123708688Y-32999819D01*
X123708688Y-32999819D02*
X123470593Y-32999819D01*
X123470593Y-32999819D02*
X123375355Y-32952200D01*
X123375355Y-32952200D02*
X123327736Y-32856961D01*
X123327736Y-32856961D02*
X123327736Y-32761723D01*
X123327736Y-32761723D02*
X123375355Y-32666485D01*
X123375355Y-32666485D02*
X123470593Y-32618866D01*
X123470593Y-32618866D02*
X123708688Y-32618866D01*
X123708688Y-32618866D02*
X123803926Y-32571247D01*
X124280117Y-32999819D02*
X124280117Y-32333152D01*
X124280117Y-32523628D02*
X124327736Y-32428390D01*
X124327736Y-32428390D02*
X124375355Y-32380771D01*
X124375355Y-32380771D02*
X124470593Y-32333152D01*
X124470593Y-32333152D02*
X124565831Y-32333152D01*
X124899165Y-32999819D02*
X124899165Y-32333152D01*
X124899165Y-32523628D02*
X124946784Y-32428390D01*
X124946784Y-32428390D02*
X124994403Y-32380771D01*
X124994403Y-32380771D02*
X125089641Y-32333152D01*
X125089641Y-32333152D02*
X125184879Y-32333152D01*
X125946784Y-32999819D02*
X125946784Y-32476009D01*
X125946784Y-32476009D02*
X125899165Y-32380771D01*
X125899165Y-32380771D02*
X125803927Y-32333152D01*
X125803927Y-32333152D02*
X125613451Y-32333152D01*
X125613451Y-32333152D02*
X125518213Y-32380771D01*
X125946784Y-32952200D02*
X125851546Y-32999819D01*
X125851546Y-32999819D02*
X125613451Y-32999819D01*
X125613451Y-32999819D02*
X125518213Y-32952200D01*
X125518213Y-32952200D02*
X125470594Y-32856961D01*
X125470594Y-32856961D02*
X125470594Y-32761723D01*
X125470594Y-32761723D02*
X125518213Y-32666485D01*
X125518213Y-32666485D02*
X125613451Y-32618866D01*
X125613451Y-32618866D02*
X125851546Y-32618866D01*
X125851546Y-32618866D02*
X125946784Y-32571247D01*
X126422975Y-32333152D02*
X126422975Y-32999819D01*
X126422975Y-32428390D02*
X126470594Y-32380771D01*
X126470594Y-32380771D02*
X126565832Y-32333152D01*
X126565832Y-32333152D02*
X126708689Y-32333152D01*
X126708689Y-32333152D02*
X126803927Y-32380771D01*
X126803927Y-32380771D02*
X126851546Y-32476009D01*
X126851546Y-32476009D02*
X126851546Y-32999819D01*
X127184880Y-32333152D02*
X127565832Y-32333152D01*
X127327737Y-31999819D02*
X127327737Y-32856961D01*
X127327737Y-32856961D02*
X127375356Y-32952200D01*
X127375356Y-32952200D02*
X127470594Y-32999819D01*
X127470594Y-32999819D02*
X127565832Y-32999819D01*
X127803928Y-32333152D02*
X128042023Y-32999819D01*
X128280118Y-32333152D02*
X128042023Y-32999819D01*
X128042023Y-32999819D02*
X127946785Y-33237914D01*
X127946785Y-33237914D02*
X127899166Y-33285533D01*
X127899166Y-33285533D02*
X127803928Y-33333152D01*
X129422976Y-32999819D02*
X129422976Y-32333152D01*
X129422976Y-31999819D02*
X129375357Y-32047438D01*
X129375357Y-32047438D02*
X129422976Y-32095057D01*
X129422976Y-32095057D02*
X129470595Y-32047438D01*
X129470595Y-32047438D02*
X129422976Y-31999819D01*
X129422976Y-31999819D02*
X129422976Y-32095057D01*
X129851547Y-32952200D02*
X129946785Y-32999819D01*
X129946785Y-32999819D02*
X130137261Y-32999819D01*
X130137261Y-32999819D02*
X130232499Y-32952200D01*
X130232499Y-32952200D02*
X130280118Y-32856961D01*
X130280118Y-32856961D02*
X130280118Y-32809342D01*
X130280118Y-32809342D02*
X130232499Y-32714104D01*
X130232499Y-32714104D02*
X130137261Y-32666485D01*
X130137261Y-32666485D02*
X129994404Y-32666485D01*
X129994404Y-32666485D02*
X129899166Y-32618866D01*
X129899166Y-32618866D02*
X129851547Y-32523628D01*
X129851547Y-32523628D02*
X129851547Y-32476009D01*
X129851547Y-32476009D02*
X129899166Y-32380771D01*
X129899166Y-32380771D02*
X129994404Y-32333152D01*
X129994404Y-32333152D02*
X130137261Y-32333152D01*
X130137261Y-32333152D02*
X130232499Y-32380771D01*
X131375357Y-32333152D02*
X131613452Y-32999819D01*
X131613452Y-32999819D02*
X131851547Y-32333152D01*
X132375357Y-32999819D02*
X132280119Y-32952200D01*
X132280119Y-32952200D02*
X132232500Y-32904580D01*
X132232500Y-32904580D02*
X132184881Y-32809342D01*
X132184881Y-32809342D02*
X132184881Y-32523628D01*
X132184881Y-32523628D02*
X132232500Y-32428390D01*
X132232500Y-32428390D02*
X132280119Y-32380771D01*
X132280119Y-32380771D02*
X132375357Y-32333152D01*
X132375357Y-32333152D02*
X132518214Y-32333152D01*
X132518214Y-32333152D02*
X132613452Y-32380771D01*
X132613452Y-32380771D02*
X132661071Y-32428390D01*
X132661071Y-32428390D02*
X132708690Y-32523628D01*
X132708690Y-32523628D02*
X132708690Y-32809342D01*
X132708690Y-32809342D02*
X132661071Y-32904580D01*
X132661071Y-32904580D02*
X132613452Y-32952200D01*
X132613452Y-32952200D02*
X132518214Y-32999819D01*
X132518214Y-32999819D02*
X132375357Y-32999819D01*
X133137262Y-32999819D02*
X133137262Y-32333152D01*
X133137262Y-31999819D02*
X133089643Y-32047438D01*
X133089643Y-32047438D02*
X133137262Y-32095057D01*
X133137262Y-32095057D02*
X133184881Y-32047438D01*
X133184881Y-32047438D02*
X133137262Y-31999819D01*
X133137262Y-31999819D02*
X133137262Y-32095057D01*
X134042023Y-32999819D02*
X134042023Y-31999819D01*
X134042023Y-32952200D02*
X133946785Y-32999819D01*
X133946785Y-32999819D02*
X133756309Y-32999819D01*
X133756309Y-32999819D02*
X133661071Y-32952200D01*
X133661071Y-32952200D02*
X133613452Y-32904580D01*
X133613452Y-32904580D02*
X133565833Y-32809342D01*
X133565833Y-32809342D02*
X133565833Y-32523628D01*
X133565833Y-32523628D02*
X133613452Y-32428390D01*
X133613452Y-32428390D02*
X133661071Y-32380771D01*
X133661071Y-32380771D02*
X133756309Y-32333152D01*
X133756309Y-32333152D02*
X133946785Y-32333152D01*
X133946785Y-32333152D02*
X134042023Y-32380771D01*
X134518214Y-32904580D02*
X134565833Y-32952200D01*
X134565833Y-32952200D02*
X134518214Y-32999819D01*
X134518214Y-32999819D02*
X134470595Y-32952200D01*
X134470595Y-32952200D02*
X134518214Y-32904580D01*
X134518214Y-32904580D02*
X134518214Y-32999819D01*
X108556779Y-84349819D02*
X108556779Y-83349819D01*
X108556779Y-83349819D02*
X108890112Y-84064104D01*
X108890112Y-84064104D02*
X109223445Y-83349819D01*
X109223445Y-83349819D02*
X109223445Y-84349819D01*
X110128207Y-84349819D02*
X110128207Y-83826009D01*
X110128207Y-83826009D02*
X110080588Y-83730771D01*
X110080588Y-83730771D02*
X109985350Y-83683152D01*
X109985350Y-83683152D02*
X109794874Y-83683152D01*
X109794874Y-83683152D02*
X109699636Y-83730771D01*
X110128207Y-84302200D02*
X110032969Y-84349819D01*
X110032969Y-84349819D02*
X109794874Y-84349819D01*
X109794874Y-84349819D02*
X109699636Y-84302200D01*
X109699636Y-84302200D02*
X109652017Y-84206961D01*
X109652017Y-84206961D02*
X109652017Y-84111723D01*
X109652017Y-84111723D02*
X109699636Y-84016485D01*
X109699636Y-84016485D02*
X109794874Y-83968866D01*
X109794874Y-83968866D02*
X110032969Y-83968866D01*
X110032969Y-83968866D02*
X110128207Y-83921247D01*
X111032969Y-84349819D02*
X111032969Y-83349819D01*
X111032969Y-84302200D02*
X110937731Y-84349819D01*
X110937731Y-84349819D02*
X110747255Y-84349819D01*
X110747255Y-84349819D02*
X110652017Y-84302200D01*
X110652017Y-84302200D02*
X110604398Y-84254580D01*
X110604398Y-84254580D02*
X110556779Y-84159342D01*
X110556779Y-84159342D02*
X110556779Y-83873628D01*
X110556779Y-83873628D02*
X110604398Y-83778390D01*
X110604398Y-83778390D02*
X110652017Y-83730771D01*
X110652017Y-83730771D02*
X110747255Y-83683152D01*
X110747255Y-83683152D02*
X110937731Y-83683152D01*
X110937731Y-83683152D02*
X111032969Y-83730771D01*
X111890112Y-84302200D02*
X111794874Y-84349819D01*
X111794874Y-84349819D02*
X111604398Y-84349819D01*
X111604398Y-84349819D02*
X111509160Y-84302200D01*
X111509160Y-84302200D02*
X111461541Y-84206961D01*
X111461541Y-84206961D02*
X111461541Y-83826009D01*
X111461541Y-83826009D02*
X111509160Y-83730771D01*
X111509160Y-83730771D02*
X111604398Y-83683152D01*
X111604398Y-83683152D02*
X111794874Y-83683152D01*
X111794874Y-83683152D02*
X111890112Y-83730771D01*
X111890112Y-83730771D02*
X111937731Y-83826009D01*
X111937731Y-83826009D02*
X111937731Y-83921247D01*
X111937731Y-83921247D02*
X111461541Y-84016485D01*
X113128208Y-84349819D02*
X113128208Y-83349819D01*
X113128208Y-83730771D02*
X113223446Y-83683152D01*
X113223446Y-83683152D02*
X113413922Y-83683152D01*
X113413922Y-83683152D02*
X113509160Y-83730771D01*
X113509160Y-83730771D02*
X113556779Y-83778390D01*
X113556779Y-83778390D02*
X113604398Y-83873628D01*
X113604398Y-83873628D02*
X113604398Y-84159342D01*
X113604398Y-84159342D02*
X113556779Y-84254580D01*
X113556779Y-84254580D02*
X113509160Y-84302200D01*
X113509160Y-84302200D02*
X113413922Y-84349819D01*
X113413922Y-84349819D02*
X113223446Y-84349819D01*
X113223446Y-84349819D02*
X113128208Y-84302200D01*
X113937732Y-83683152D02*
X114175827Y-84349819D01*
X114413922Y-83683152D02*
X114175827Y-84349819D01*
X114175827Y-84349819D02*
X114080589Y-84587914D01*
X114080589Y-84587914D02*
X114032970Y-84635533D01*
X114032970Y-84635533D02*
X113937732Y-84683152D01*
X115413923Y-83349819D02*
X115985351Y-83349819D01*
X115699637Y-84349819D02*
X115699637Y-83349819D01*
X116699637Y-84302200D02*
X116604399Y-84349819D01*
X116604399Y-84349819D02*
X116413923Y-84349819D01*
X116413923Y-84349819D02*
X116318685Y-84302200D01*
X116318685Y-84302200D02*
X116271066Y-84206961D01*
X116271066Y-84206961D02*
X116271066Y-83826009D01*
X116271066Y-83826009D02*
X116318685Y-83730771D01*
X116318685Y-83730771D02*
X116413923Y-83683152D01*
X116413923Y-83683152D02*
X116604399Y-83683152D01*
X116604399Y-83683152D02*
X116699637Y-83730771D01*
X116699637Y-83730771D02*
X116747256Y-83826009D01*
X116747256Y-83826009D02*
X116747256Y-83921247D01*
X116747256Y-83921247D02*
X116271066Y-84016485D01*
X117604399Y-84349819D02*
X117604399Y-83826009D01*
X117604399Y-83826009D02*
X117556780Y-83730771D01*
X117556780Y-83730771D02*
X117461542Y-83683152D01*
X117461542Y-83683152D02*
X117271066Y-83683152D01*
X117271066Y-83683152D02*
X117175828Y-83730771D01*
X117604399Y-84302200D02*
X117509161Y-84349819D01*
X117509161Y-84349819D02*
X117271066Y-84349819D01*
X117271066Y-84349819D02*
X117175828Y-84302200D01*
X117175828Y-84302200D02*
X117128209Y-84206961D01*
X117128209Y-84206961D02*
X117128209Y-84111723D01*
X117128209Y-84111723D02*
X117175828Y-84016485D01*
X117175828Y-84016485D02*
X117271066Y-83968866D01*
X117271066Y-83968866D02*
X117509161Y-83968866D01*
X117509161Y-83968866D02*
X117604399Y-83921247D01*
X118080590Y-84349819D02*
X118080590Y-83683152D01*
X118080590Y-83778390D02*
X118128209Y-83730771D01*
X118128209Y-83730771D02*
X118223447Y-83683152D01*
X118223447Y-83683152D02*
X118366304Y-83683152D01*
X118366304Y-83683152D02*
X118461542Y-83730771D01*
X118461542Y-83730771D02*
X118509161Y-83826009D01*
X118509161Y-83826009D02*
X118509161Y-84349819D01*
X118509161Y-83826009D02*
X118556780Y-83730771D01*
X118556780Y-83730771D02*
X118652018Y-83683152D01*
X118652018Y-83683152D02*
X118794875Y-83683152D01*
X118794875Y-83683152D02*
X118890114Y-83730771D01*
X118890114Y-83730771D02*
X118937733Y-83826009D01*
X118937733Y-83826009D02*
X118937733Y-84349819D01*
X120366304Y-83349819D02*
X120556780Y-83349819D01*
X120556780Y-83349819D02*
X120652018Y-83397438D01*
X120652018Y-83397438D02*
X120747256Y-83492676D01*
X120747256Y-83492676D02*
X120794875Y-83683152D01*
X120794875Y-83683152D02*
X120794875Y-84016485D01*
X120794875Y-84016485D02*
X120747256Y-84206961D01*
X120747256Y-84206961D02*
X120652018Y-84302200D01*
X120652018Y-84302200D02*
X120556780Y-84349819D01*
X120556780Y-84349819D02*
X120366304Y-84349819D01*
X120366304Y-84349819D02*
X120271066Y-84302200D01*
X120271066Y-84302200D02*
X120175828Y-84206961D01*
X120175828Y-84206961D02*
X120128209Y-84016485D01*
X120128209Y-84016485D02*
X120128209Y-83683152D01*
X120128209Y-83683152D02*
X120175828Y-83492676D01*
X120175828Y-83492676D02*
X120271066Y-83397438D01*
X120271066Y-83397438D02*
X120366304Y-83349819D01*
X121223447Y-84349819D02*
X121223447Y-83349819D01*
X121223447Y-83730771D02*
X121318685Y-83683152D01*
X121318685Y-83683152D02*
X121509161Y-83683152D01*
X121509161Y-83683152D02*
X121604399Y-83730771D01*
X121604399Y-83730771D02*
X121652018Y-83778390D01*
X121652018Y-83778390D02*
X121699637Y-83873628D01*
X121699637Y-83873628D02*
X121699637Y-84159342D01*
X121699637Y-84159342D02*
X121652018Y-84254580D01*
X121652018Y-84254580D02*
X121604399Y-84302200D01*
X121604399Y-84302200D02*
X121509161Y-84349819D01*
X121509161Y-84349819D02*
X121318685Y-84349819D01*
X121318685Y-84349819D02*
X121223447Y-84302200D01*
X122271066Y-84349819D02*
X122175828Y-84302200D01*
X122175828Y-84302200D02*
X122128209Y-84206961D01*
X122128209Y-84206961D02*
X122128209Y-83349819D01*
X122652019Y-84349819D02*
X122652019Y-83683152D01*
X122652019Y-83349819D02*
X122604400Y-83397438D01*
X122604400Y-83397438D02*
X122652019Y-83445057D01*
X122652019Y-83445057D02*
X122699638Y-83397438D01*
X122699638Y-83397438D02*
X122652019Y-83349819D01*
X122652019Y-83349819D02*
X122652019Y-83445057D01*
X123556780Y-83683152D02*
X123556780Y-84683152D01*
X123556780Y-84302200D02*
X123461542Y-84349819D01*
X123461542Y-84349819D02*
X123271066Y-84349819D01*
X123271066Y-84349819D02*
X123175828Y-84302200D01*
X123175828Y-84302200D02*
X123128209Y-84254580D01*
X123128209Y-84254580D02*
X123080590Y-84159342D01*
X123080590Y-84159342D02*
X123080590Y-83873628D01*
X123080590Y-83873628D02*
X123128209Y-83778390D01*
X123128209Y-83778390D02*
X123175828Y-83730771D01*
X123175828Y-83730771D02*
X123271066Y-83683152D01*
X123271066Y-83683152D02*
X123461542Y-83683152D01*
X123461542Y-83683152D02*
X123556780Y-83730771D01*
X124032971Y-84254580D02*
X124080590Y-84302200D01*
X124080590Y-84302200D02*
X124032971Y-84349819D01*
X124032971Y-84349819D02*
X123985352Y-84302200D01*
X123985352Y-84302200D02*
X124032971Y-84254580D01*
X124032971Y-84254580D02*
X124032971Y-84349819D01*
D11*
X38910000Y-31210000D02*
X135130000Y-31210000D01*
X135130000Y-85700000D01*
X38910000Y-85700000D01*
X38910000Y-31210000D01*
M02*
